# xmcd
#
# Track frame offsets:
#	150
#	14550
#	35432
#	48523
#	69148
#	88267
#	106663
#	119750
#	137007
#	156504
#	176579
#	195979
#	215779
#
# Disc length: 3114 seconds
# Revision: 0
# Processed by: cddbd v1.5.2PL0 Copyright (c) Steve Scherf et al.
# Submitted via: dBpowerAMP V12.0
#
DISCID=b90c280d
DTITLE=Various Artist - Left Back
DYEAR=2010
DGENRE=Rap
TTITLE0=Little Brother - Curtain Call
TTITLE1=Little Brother feat. Jozeemo and YahZarah - Table for Two
TTITLE2=Little Brother - Tigallo for Dolo
TTITLE3=Little Brother - Revenge
TTITLE4=Little Brother feat. Chaundon - So Cold
TTITLE5=Little Brother feat. Darien Brockington and Bilal - Second Chances
TTITLE6=Little Brother - Go Off Go On
TTITLE7=Little Brother - What Are We
TTITLE8=Little Brother feat. Carlitta Durand - After the Party [S1 and Caleb's Who Shot JR Ewing Remix]
TTITLE9=Little Brother feat. Darien Brockington - Two Step Blues [Zo Purple Suit with the Matching Gators Remix]
TTITLE10=Little Brother feat. Khrysis - Get Enough (Part 2)
TTITLE11=Little Brother - Before the Night Is Over
TTITLE12=Little Brother feat. Torae - 24
EXTD=
EXTT0=
EXTT1=
EXTT2=
EXTT3=
EXTT4=
EXTT5=
EXTT6=
EXTT7=
EXTT8=
EXTT9=
EXTT10=
EXTT11=
EXTT12=
PLAYORDER=
